<svg width="63" height="63" fill="none" xmlns="http://www.w3.org/2000/svg"><path d="M44.9204 31.4997c0 1.0501.8512 1.9015 1.9014 1.9015h4.3244c2.2014 0 4.3762.5046 6.3416 1.4962.5859.2957 1.259.444 1.9705.3965 1.885-.1259 3.4132-1.6591 3.5336-3.5445.1412-2.2135-1.6118-4.0524-3.7949-4.0524-.5913 0-1.1511.135-1.65.3759-2.0027.9669-4.1777 1.5255-6.4016 1.5255h-4.3236c-1.05-.0001-1.9014.8513-1.9014 1.9013ZM19.154 43.8447c-.6139-.6139-1.6092-.6139-2.2231 0l-2.5281 2.5281c-1.2869 1.2869-2.8533 2.2633-4.58196 2.8326-.51544.1697-.99556.4764-1.38365.9201-1.02841 1.1756-1.02558 2.9653.00628 4.1379 1.21138 1.3767 3.31123 1.4269 4.58753.1506.3456-.3456.5939-.7518.7449-1.1843.6055-1.736 1.5505-3.334 2.8506-4.6341l2.5276-2.5276c.6137-.6141.6137-1.6094-.0001-2.2233ZM41.9569 21.0433c.6424.6424 1.6839.6424 2.3263 0l2.6455-2.6454c1.3467-1.3467 2.9858-2.3684 4.7947-2.9642.5393-.1776 1.0418-.4986 1.4479-.9629 1.0761-1.2302 1.0732-3.103-.0067-4.33-1.2676-1.4405-3.465-1.49304-4.8005-.15762-.3617.36172-.6215.78672-.7794 1.23932-.6337 1.8166-1.6225 3.4888-2.9829 4.8493l-2.645 2.645c-.6423.6426-.6423 1.684.0001 2.3265Z" fill="#FB4C47"/><path d="M31.4989 44.9199c-1.0501 0-1.9014.8513-1.9014 1.9014v4.3244c0 2.2014-.5046 4.3762-1.4963 6.3416-.2957.5859-.4439 1.259-.3964 1.9704.1259 1.8851 1.659 3.4133 3.5444 3.5337 2.2135.1412 4.0524-1.6118 4.0524-3.7949 0-.5913-.135-1.1511-.3759-1.65-.9669-2.0027-1.5255-4.1777-1.5255-6.4016v-4.3236c.0001-1.05-.8512-1.9014-1.9013-1.9014Z" fill="#FFA2A1"/><path d="M34.9285 57.5466c-.9669-2.0027-1.5256-4.1776-1.5256-6.4016v-4.3237c0-1.05-.8512-1.9014-1.9014-1.9014s-1.9014.8513-1.9014 1.9014v4.3237c0 2.224.5586 4.3988 1.5255 6.4016.2409.499.3759 1.0587.3759 1.6501 0 1.4064-.7638 2.6334-1.8987 3.2913.4923.2863 1.053.4655 1.6492.5035 2.2135.1413 4.0524-1.6118 4.0524-3.7948 0-.5914-.135-1.1511-.3759-1.6501Z" fill="#FB4C47"/><path d="M17.3091 23.647c3.4304 0 6.2112-2.7808 6.2112-6.2112 0-3.4303-2.7808-6.2112-6.2112-6.2112-3.4303 0-6.2112 2.7809-6.2112 6.2112 0 3.4304 2.7809 6.2112 6.2112 6.2112Z" fill="#FF807E"/><path d="M17.3082 11.2246c-.6634 0-1.302.1051-1.9015.2977 2.5001.8032 4.3098 3.1466 4.3098 5.9135 0 2.767-1.8097 5.1104-4.3098 5.9136.5994.1926 1.238.2976 1.9015.2976 3.4303 0 6.2112-2.7808 6.2112-6.2112 0-3.4304-2.781-6.2112-6.2112-6.2112Z" fill="#FB4C47"/><path d="M31.5002 51.7812c11.2012 0 20.2815-9.0803 20.2815-20.2815 0-11.2011-9.0803-20.2814-20.2815-20.2814-11.2011 0-20.2814 9.0803-20.2814 20.2814 0 11.2012 9.0803 20.2815 20.2814 20.2815Z" fill="#FFBFBE"/><path d="M31.5015 11.2183c-.6413 0-1.2752.0311-1.9014.0894 10.3094.9588 18.3802 9.6323 18.3802 20.192 0 10.5598-8.0707 19.2333-18.3801 20.1921.6261.0582 1.2601.0894 1.9014.0894 11.2013 0 20.2815-9.0802 20.2815-20.2815 0-11.2012-9.0804-20.2814-20.2816-20.2814Z" fill="#FFA2A2"/><path d="M39.1036 28.6866c2.2752 0 4.1197-1.8444 4.1197-4.1196 0-2.2753-1.8445-4.1197-4.1197-4.1197-2.2753 0-4.1197 1.8444-4.1197 4.1197 0 2.2752 1.8444 4.1196 4.1197 4.1196Z" fill="#FFA2A1"/><path d="M39.1065 20.4473c-.6861 0-1.3325.1687-1.9014.4653 1.3179.6872 2.2183 2.0652 2.2183 3.6544 0 1.5891-.9004 2.9672-2.2183 3.6543.5689.2966 1.2153.4653 1.9014.4653 2.2753 0 4.1197-1.8444 4.1197-4.1196 0-2.2753-1.8444-4.1197-4.1197-4.1197ZM24.2484 42.2112c1.5402 0 2.7887-1.2485 2.7887-2.7887s-1.2485-2.7887-2.7887-2.7887c-1.5401 0-2.7887 1.2485-2.7887 2.7887s1.2486 2.7887 2.7887 2.7887Z" fill="#FF807E"/><path d="M45.2971 50.3442c2.1002 0 3.8027-1.7025 3.8027-3.8027s-1.7025-3.8027-3.8027-3.8027-3.8027 1.7025-3.8027 3.8027 1.7025 3.8027 3.8027 3.8027Z" fill="#FB4C47"/><path d="M45.2977 42.7388c-.6929 0-1.342.1863-1.9015.51 1.1364.6575 1.9015 1.8854 1.9015 3.2928 0 1.4074-.7651 2.6352-1.9015 3.2928.5595.3238 1.2086.5101 1.9015.5101 2.1002 0 3.8027-1.7026 3.8027-3.8028 0-2.1001-1.7025-3.8029-3.8027-3.8029Z" fill="#FF807E"/><path d="M18.0794 31.4997c0 1.0501-.8512 1.9015-1.9014 1.9015h-4.3243c-2.20141 0-4.37624.5046-6.34165 1.4962-.58594.2957-1.259.444-1.97045.3965C1.65654 35.168.12832 33.6348.00798 31.7494c-.14126-2.2135 1.61177-4.0524 3.79485-4.0524.59135 0 1.15109.135 1.65004.3759 2.00269.9669 4.17764 1.5255 6.40153 1.5255h4.3237c1.05-.0001 1.9013.8513 1.9013 1.9013Z" fill="#FB4C47"/><path d="M31.4988 18.0794c1.05 0 1.9014-.8512 1.9014-1.9014v-4.3243c0-2.20141.5046-4.37624 1.4962-6.34165.2957-.58594.444-1.259.3965-1.97045-.1259-1.88506-1.659-3.41328-3.5445-3.53362-2.2134-.14126-4.0524 1.61177-4.0524 3.79485 0 .59135.135 1.15109.3759 1.65004.9669 2.00269 1.5256 4.17764 1.5256 6.40153v4.3237c-.0002 1.05.8512 1.9013 1.9013 1.9013Z" fill="#FFA2A1"/><path d="M35.2938 3.54159C35.168 1.65653 33.6348.12831 31.7494.00797c-.7875-.05033-1.5269.14015-2.1537.5035 1.0648.61929 1.8091 1.74109 1.8953 3.03012.0475.71145-.1008 1.38451-.3965 1.97045-.9916 1.96541-1.4962 4.14024-1.4962 6.34166v4.3243c0 1.0501.8512 1.9014 1.9014 1.9014s1.9014-.8512 1.9014-1.9014v-4.3243c0-2.20142.5047-4.37625 1.4963-6.34166.2957-.58594.4441-1.259.3964-1.97045Z" fill="#FB4C47"/></svg>