<svg aria-hidden="true" style="position:absolute;width:0;height:0;overflow:hidden" xmlns="http://www.w3.org/2000/svg"><defs><symbol id="icon-facebook" viewBox="0 0 17 32"><path fill="#035755" style="fill:var(--color1, #035755)" d="M16.417.442v4.939H13.48c-1.073 0-1.796.224-2.17.673s-.561 1.122-.561 2.02v3.536h5.481l-.73 5.537h-4.752v14.199H5.024V17.147H.254V11.61h4.77V7.532c0-2.32.649-4.116 1.946-5.388C8.267.859 9.994.217 12.152.217c1.833 0 3.255.075 4.265.225z"/></symbol><symbol id="icon-twitter" viewBox="0 0 40 32"><path fill="#035755" style="fill:var(--color1, #035755)" d="M39.784 4.304c-1.097 1.604-2.423 2.971-3.978 4.1.016.229.025.573.025 1.031 0 2.128-.311 4.256-.933 6.384-.622 2.112-1.571 4.141-2.848 6.089-1.26 1.948-2.766 3.675-4.518 5.181-1.752 1.49-3.863 2.685-6.335 3.585-2.472.884-5.115 1.326-7.931 1.326-4.436 0-8.496-1.187-12.179-3.56.573.065 1.211.098 1.915.098 3.683 0 6.965-1.13 9.846-3.388-1.719-.033-3.257-.557-4.616-1.571-1.359-1.031-2.292-2.341-2.799-3.929.54.082 1.039.123 1.498.123.704 0 1.4-.09 2.087-.27-1.833-.377-3.356-1.285-4.567-2.725-1.195-1.457-1.792-3.143-1.792-5.058v-.098c1.113.622 2.308.958 3.585 1.007-1.08-.72-1.94-1.661-2.578-2.824s-.958-2.423-.958-3.781c0-1.44.36-2.775 1.08-4.002 1.981 2.439 4.387 4.395 7.219 5.868 2.848 1.457 5.893 2.267 9.134 2.431-.131-.622-.196-1.228-.196-1.817 0-2.193.769-4.06 2.308-5.598C23.808 1.351 25.682.573 27.876.573c2.292 0 4.223.835 5.795 2.504 1.784-.344 3.462-.982 5.033-1.915-.606 1.882-1.768 3.339-3.487 4.371 1.522-.164 3.045-.573 4.567-1.228z"/></symbol><symbol id="icon-vimeo" viewBox="0 0 37 32"><path fill="#035755" style="fill:var(--color1, #035755)" d="M35.757 8.004c-.145 3.434-2.561 8.17-7.246 14.208-4.845 6.271-8.934 9.407-12.266 9.407-2.066 0-3.812-1.913-5.238-5.74-.64-2.328-1.601-5.835-2.881-10.52-1.048-3.812-2.19-5.718-3.427-5.718-.262 0-1.186.553-2.772 1.659L.246 9.161c.349-.306 1.135-1.004 2.357-2.095C3.825 5.96 4.771 5.116 5.44 4.534c2.27-2.008 4.023-3.07 5.26-3.187 1.382-.131 2.495.276 3.339 1.222.844.931 1.433 2.408 1.768 4.431.64 4.176 1.12 6.89 1.44 8.141.8 3.623 1.673 5.435 2.619 5.435.742 0 1.862-1.171 3.361-3.514 1.47-2.343 2.263-4.132 2.379-5.369.189-2.022-.604-3.034-2.379-3.034-.829 0-1.709.189-2.641.567C22.332 3.508 25.671.729 30.604.889c3.652.116 5.369 2.488 5.151 7.115z"/></symbol><symbol id="icon-youtube" viewBox="0 0 46 32"><path fill="#f44a45" style="fill:var(--color2, #f44a45)" d="m19.162 21.982 11.884-6.138-11.884-6.212v12.351zM23.705.817c2.75 0 5.402.041 7.955.123 2.57.065 4.452.139 5.647.221l1.792.098c.016 0 .155.016.417.049.262.016.45.041.565.074.115.016.303.049.565.098.278.049.516.115.712.196s.426.188.688.319c.262.131.516.295.761.491.245.18.483.393.712.638.098.098.221.254.368.467.164.196.401.671.712 1.424.327.753.548 1.58.663 2.48.131 1.048.229 2.169.295 3.364.082 1.179.131 2.103.147 2.775v4.321c.016 2.373-.131 4.747-.442 7.12-.115.9-.319 1.719-.614 2.455-.295.72-.557 1.22-.786 1.498l-.344.417c-.229.246-.467.467-.712.663-.246.18-.499.336-.761.466-.262.115-.491.213-.688.295s-.434.147-.712.196c-.262.049-.458.09-.589.123-.115.016-.303.041-.565.074-.246.016-.377.025-.393.025-4.109.311-9.24.466-15.395.466-3.388-.033-6.335-.082-8.839-.147-2.488-.082-4.125-.147-4.911-.196l-1.203-.098-.884-.098c-.589-.082-1.039-.164-1.35-.245-.295-.082-.712-.254-1.252-.516-.524-.262-.982-.598-1.375-1.007-.098-.098-.229-.246-.393-.442-.147-.213-.385-.696-.712-1.449-.311-.753-.524-1.58-.638-2.48-.131-1.048-.237-2.161-.319-3.339-.065-1.195-.106-2.128-.123-2.799v-4.321c-.016-2.374.131-4.747.442-7.121.115-.9.319-1.711.614-2.431.295-.737.557-1.244.786-1.522l.344-.417c.229-.246.467-.458.712-.638.246-.196.499-.36.761-.491s.491-.237.688-.319c.196-.082.426-.147.688-.196.278-.049.475-.082.589-.098.115-.033.303-.057.565-.074.262-.033.401-.049.417-.049C12.419.965 17.55.818 23.705.818z"/></symbol><symbol id="icon-burger-close" viewBox="0 0 32 32"><path d="M23.733 10.304 22.229 8.8l-5.963 5.963L10.303 8.8l-1.504 1.504 5.963 5.963-5.963 5.963 1.504 1.504 5.963-5.963 5.963 5.963 1.504-1.504-5.963-5.963 5.963-5.963z"/></symbol><symbol id="icon-burger-open" viewBox="0 0 32 32"><path d="M6.4 11.733V9.6h19.2v2.133H6.4zm0 5.334h19.2v-2.133H6.4v2.133zm0 5.333h19.2v-2.133H6.4V22.4z"/></symbol></defs></svg>